 Full Credits To Feel Free :)
 ######## ######## ######## ##          ######## ########  ######## ######## 
 ##       ##       ##       ##          ##       ##     ## ##       ##       
 ##       ##       ##       ##          ##       ##     ## ##       ##       
 ######   ######   ######   ##          ######   ########  ######   ######   
 ##       ##       ##       ##          ##       ##   ##   ##       ##       
 ##       ##       ##       ##          ##       ##    ##  ##       ##       
 ##       ######## ######## ########    ##       ##     ## ######## ######## 

 Genre:Animation | Action | Adventure
 Language:English  http://www.imdb.com/title/tt1302011/
 Source:Floppy Disk/EP1C Thanks!

 Format : MPEG-4
 Format profile : Base Media
 Codec ID : isom
 File size : 971 MiB
 Duration : 1h 21mn
 Overall bit rate : 1 668 Kbps

 Video
 ID : 1
 Format : AVC
 Format/Info : Advanced Video Codec
 Format profile : High@L4.1
 Format settings, CABAC : Yes
 Format settings, ReFrames : 3 frames
 Codec ID : avc1
 Codec ID/Info : Advanced Video Coding
 Duration : 1h 21mn
 Bit rate mode : Variable
 Bit rate : 1 433 Kbps
 Maximum bit rate : 5 588 Kbps
 Width : 720 pixels
 Height : 320 pixels
 Display aspect ratio : 2.25:1
 Frame rate mode : Constant
 Frame rate : 25.000 fps
 Color space : YUV
 Chroma subsampling : 4:2:0
 Bit depth : 8 bits
 Scan type : Progressive
 Bits/(Pixel*Frame) : 0.249
 Stream size : 838 MiB (86%)
 Writing library : x264

 Audio
 ID : 2
 Format : AAC
 Format/Info : Advanced Audio Codec
 Format version : Version 4
 Format profile : LC
 Format settings, SBR : No
 Codec ID : 40
 Duration : 1h 21mn
 Bit rate mode : Variable
 Bit rate : 224 Kbps
 Maximum bit rate : 256 Kbps
 Channel(s) : 2 channels
 Channel positions : Front: L R
 Sampling rate : 44.1 KHz
 Stream size : 130 MiB (13%)


 Plot:
 Po joins forces with a group of new kung-fu masters to take on an old enemy 
 with a deadly new weapon






 ==================================  http://thepiratebay.org/user/hiest
 ==================================






 Screen Shots:
  http://leetleech.org/images/58488730159791075567.png
  http://leetleech.org/images/14405270153679682013.png
  http://leetleech.org/images/43112795375444347806.png
  http://leetleech.org/images/36110201139373110063.png

 Full Credits To Feel Free :)
 ######## ######## ######## ##          ######## ########  ######## ######## 
 ##       ##       ##       ##          ##       ##     ## ##       ##       
 ##       ##       ##       ##          ##       ##     ## ##       ##       
 ######   ######   ######   ##          ######   ########  ######   ######   
 ##       ##       ##       ##          ##       ##   ##   ##       ##       
 ##       ##       ##       ##          ##       ##    ##  ##       ##       
 ##       ######## ######## ########    ##       ##     ## ######## ########